<svg width="17" height="18" viewBox="0 0 17 18" fill="none" xmlns="http://www.w3.org/2000/svg">
<path d="M15.0625 1.625H12.4375V0.3125H11.125V1.625H5.875V0.3125H4.5625V1.625H1.9375C1.58951 1.62535 1.25587 1.76374 1.00981 2.00981C0.76374 2.25587 0.625347 2.58951 0.625 2.9375V16.0625C0.625347 16.4105 0.76374 16.7441 1.00981 16.9902C1.25587 17.2363 1.58951 17.3747 1.9375 17.375H15.0625C15.4105 17.3747 15.7441 17.2363 15.9902 16.9902C16.2363 16.7441 16.3747 16.4105 16.375 16.0625V2.9375C16.3747 2.58951 16.2363 2.25587 15.9902 2.00981C15.7441 1.76374 15.4105 1.62535 15.0625 1.625ZM1.9375 2.9375H4.5625V4.25H5.875V2.9375H11.125V4.25H12.4375V2.9375H15.0625V5.5625H1.9375V2.9375ZM1.9375 6.875H5.21875V10.8125H1.9375V6.875ZM10.4688 16.0625H6.53125V12.125H10.4688V16.0625ZM10.4688 10.8125H6.53125V6.875H10.4688V10.8125ZM11.7812 16.0625V12.125H15.0625L15.0632 16.0625H11.7812Z" fill="white"/>
</svg>
