<svg version="1.2" xmlns="http://www.w3.org/2000/svg" viewBox="0 0 26 26" width="26" height="26">
	<title>filtering-svg</title>
	<style>
		.s0 { fill: none;stroke: #000000;stroke-linecap: round;stroke-linejoin: round } 
	</style>
	<path id="Layer" class="s0" d="m13.1 3.7l-0.1 3.7"/>
	<path id="Layer" class="s0" d="m4.3 18.5c0-0.3 0.1-0.6 0.4-0.9 0.2-0.2 0.5-0.3 0.8-0.3h2.5c0.4 0 0.7 0.1 0.9 0.4 0.2 0.2 0.4 0.5 0.4 0.8 0 0.4-0.2 0.7-0.4 0.9-0.2 0.3-0.6 0.4-0.9 0.4h-2.5c-0.3 0-0.6-0.2-0.8-0.4-0.3-0.2-0.4-0.6-0.4-0.9zm2.6-14.8l-0.1 13.6zm-0.1 16.1v3.7zm9.9-1.2c0-0.3 0.1-0.6 0.3-0.8 0.3-0.3 0.6-0.4 0.9-0.4h2.5c0.3 0 0.6 0.2 0.9 0.4 0.2 0.2 0.3 0.5 0.3 0.9 0 0.3-0.1 0.6-0.3 0.8-0.3 0.3-0.6 0.4-0.9 0.4h-2.5c-0.3 0-0.6-0.2-0.9-0.4-0.2-0.2-0.3-0.5-0.3-0.9zm2.5-14.8v13.6zm-0.2 16.1v3.7zm-8.6-11.2c0-0.3 0.2-0.6 0.4-0.9 0.2-0.2 0.5-0.3 0.9-0.3h2.4c0.4 0 0.7 0.1 0.9 0.4 0.3 0.2 0.4 0.5 0.4 0.8 0 0.4-0.2 0.7-0.4 0.9-0.2 0.3-0.5 0.4-0.9 0.4h-2.4c-0.4 0-0.7-0.2-0.9-0.4-0.2-0.2-0.4-0.6-0.4-0.9zm2.5 1.3l-0.1 13.6z"/>
</svg>