<svg width="17" height="17" viewBox="0 0 17 17" fill="none" xmlns="http://www.w3.org/2000/svg">
<path d="M0.625 13.75H7.1875V15.0625H0.625V13.75ZM0.625 9.8125H7.1875V11.125H0.625V9.8125ZM15.0625 7.1875H1.9375C1.5894 7.1875 1.25556 7.04922 1.00942 6.80308C0.763281 6.55694 0.625 6.2231 0.625 5.875V1.9375C0.625 1.5894 0.763281 1.25556 1.00942 1.00942C1.25556 0.763281 1.5894 0.625 1.9375 0.625H15.0625C15.4106 0.625 15.7444 0.763281 15.9906 1.00942C16.2367 1.25556 16.375 1.5894 16.375 1.9375V5.875C16.375 6.2231 16.2367 6.55694 15.9906 6.80308C15.7444 7.04922 15.4106 7.1875 15.0625 7.1875ZM1.9375 1.9375V5.875H15.0625V1.9375H1.9375ZM15.0625 16.375H11.125C10.7769 16.375 10.4431 16.2367 10.1969 15.9906C9.95078 15.7444 9.8125 15.4106 9.8125 15.0625V11.125C9.8125 10.7769 9.95078 10.4431 10.1969 10.1969C10.4431 9.95078 10.7769 9.8125 11.125 9.8125H15.0625C15.4106 9.8125 15.7444 9.95078 15.9906 10.1969C16.2367 10.4431 16.375 10.7769 16.375 11.125V15.0625C16.375 15.4106 16.2367 15.7444 15.9906 15.9906C15.7444 16.2367 15.4106 16.375 15.0625 16.375ZM11.125 11.125V15.0625H15.0625V11.125H11.125Z" fill="white"/>
</svg>
